<svg xmlns="http://www.w3.org/2000/svg" width="32" height="32" viewBox="0 0 16 16" shape-rendering="crispEdges">
  <rect width="16" height="16" fill="#1b1140"/>
  <rect x="3" y="2" width="10" height="1" fill="#f7f1d6"/>
  <rect x="2" y="3" width="1" height="10" fill="#f7f1d6"/>
  <rect x="13" y="3" width="1" height="10" fill="#f7f1d6"/>
  <rect x="3" y="13" width="10" height="1" fill="#f7f1d6"/>
  <rect x="2" y="3" width="11" height="1" fill="#f7f1d6"/>
  <rect x="2" y="12" width="11" height="1" fill="#f7f1d6"/>
  <rect x="5" y="6" width="6" height="1" fill="#c9a64a"/>
  <rect x="6" y="9" width="4" height="1" fill="#c9a64a"/>
  <rect x="6" y="5" width="1" height="2" fill="#c9a64a"/>
  <rect x="9" y="5" width="1" height="2" fill="#c9a64a"/>
  <rect x="5" y="7" width="1" height="2" fill="#c9a64a"/>
  <rect x="10" y="7" width="1" height="2" fill="#c9a64a"/>
  <rect x="5" y="4" width="2" height="1" fill="#ffffff"/>
  <rect x="5" y="5" width="1" height="1" fill="#ffffff"/>
</svg>
